# ProBuilder 6.0.4
# https://unity3d.com/unity/features/worldbuilding/probuilder
# 5/5/2025 5:10:50 PM

mtllib ./Simplified_Platform_Collider.mtl
o Simplified Platform Collider

g Simplified Platform Collider
v 4.337257 0.1646988 0.386312
v 3.737257 0.1646988 0.386312
v 4.337257 3.564699 0.386312
v 3.737257 3.564699 0.386312
v 3.737257 0.1646988 -0.2136865
v 3.737257 3.564699 -0.2136865
v 4.337257 0.1646988 -0.2136865
v 4.337257 3.564699 -0.2136865
v 1.90446 3.485301 4.875
v -2.24554 3.485301 4.875
v 1.90446 3.835301 4.875
v -2.24554 3.835301 4.875
v -4.90446 3.485301 1.575
v -4.90446 3.485301 -1.975
v -4.90446 3.835301 1.575
v -4.90446 3.835301 -1.975
v -2.045539 3.485301 -4.875
v 1.90446 3.485301 -4.875
v -2.045539 3.835301 -4.875
v 1.90446 3.835301 -4.875
v 4.90446 3.485301 -1.475
v 4.90446 3.485301 2.075
v 4.90446 3.835301 -1.475
v 4.90446 3.835301 2.075
v 0.670167 0.2242817 0.7941456
v -0.829833 0.2242817 0.7941456
v 0.670167 3.524282 0.7941465
v -0.829833 3.524282 0.7941465
v -0.829833 0.2242817 -0.7058544
v -0.829833 3.524282 -0.7058544
v 0.670167 0.2242817 -0.7058544
v 0.670167 3.524282 -0.7058544
v 0.2372565 0.1646988 -3.812588
v -0.3627434 0.1646988 -3.812588
v 0.2372565 3.564699 -3.812588
v -0.3627434 3.564699 -3.812588
v -0.3627434 0.1646988 -4.412586
v -0.3627434 3.564699 -4.412586
v 0.2372565 0.1646988 -4.412586
v 0.2372565 3.564699 -4.412586
v 0.2372565 0.1646988 4.486313
v -0.3627434 0.1646988 4.486313
v 0.2372565 3.564699 4.486313
v -0.3627434 3.564699 4.486313
v -0.3627434 0.1646988 3.886314
v -0.3627434 3.564699 3.886314
v 0.2372565 0.1646988 3.886314
v 0.2372565 3.564699 3.886314
v -3.962744 0.1646988 0.3863125
v -4.562744 0.1646988 0.3863125
v -3.962744 3.564699 0.3863125
v -4.562744 3.564699 0.3863125
v -4.562744 0.1646988 -0.213686
v -4.562744 3.564699 -0.213686
v -3.962744 0.1646988 -0.213686
v -3.962744 3.564699 -0.213686

vt 4.337257 -1.835301
vt 3.737257 -1.835301
vt 4.337257 1.564699
vt 3.737257 1.564699
vt 0.386312 -1.835301
vt -0.2136865 -1.835301
vt 0.386312 1.564699
vt -0.2136865 1.564699
vt -3.737257 -1.835301
vt -4.337257 -1.835301
vt -3.737257 1.564699
vt -4.337257 1.564699
vt 0.2136865 -1.835301
vt -0.386312 -1.835301
vt 0.2136865 1.564699
vt -0.386312 1.564699
vt -4.337257 0.386312
vt -3.737257 0.386312
vt -4.337257 -0.2136865
vt -3.737257 -0.2136865
vt 4.337257 -0.2136865
vt 3.737257 -0.2136865
vt 4.337257 0.386312
vt 3.737257 0.386312
vt 5.362257 -1.270091
vt 1.212257 -1.270091
vt 5.362257 -0.9200909
vt 1.212257 -0.9200909
vt 4.511313 -1.270091
vt 0.9613128 -1.270091
vt 4.511313 -0.9200909
vt 0.9613128 -0.9200909
vt -1.412257 -1.270091
vt -5.362257 -1.270091
vt -1.412257 -0.9200909
vt -5.362257 -0.9200909
vt -1.461313 -1.270091
vt -5.011313 -1.270091
vt -1.461313 -0.9200909
vt -5.011313 -0.9200909
vt -5.362257 7.811313
vt -1.212257 7.811313
vt -5.362257 -1.938687
vt -1.412257 -1.938687
vt 5.362257 -1.938687
vt 1.412257 -1.938687
vt 5.362257 7.811313
vt 1.212257 7.811313
vt -1.446663 4.511313
vt -1.446663 0.9613128
vt 6.843149 -0.9200909
vt 6.843149 -1.270091
vt 2.60524 -0.9200909
vt 2.60524 -1.270091
vt -2.37207 -1.270091
vt -2.37207 -0.9200909
vt 1.700206 -1.270091
vt 1.700206 -0.9200909
vt 1.446663 0.9613125
vt 1.446664 4.511312
vt 8.362257 1.461313
vt 8.362257 5.011313
vt -2.094085 -0.9200909
vt -2.094085 -1.270091
vt -6.628398 -0.9200909
vt -6.628398 -1.270091
vt -1.409695 -1.270091
vt -1.409695 -0.9200909
vt 2.693962 -1.270091
vt 2.693962 -0.9200909
vt -8.362257 5.011313
vt -8.362257 1.461313
vt 4.787257 -2.085301
vt 3.287257 -2.085301
vt 4.787257 1.2147
vt 3.287257 1.2147
vt 0.4250779 -2.085301
vt -1.074922 -2.085301
vt 0.4250789 1.2147
vt -1.074922 1.2147
vt -3.287257 -2.085301
vt -4.787257 -2.085301
vt -3.287257 1.2147
vt -4.787257 1.2147
vt 1.074922 -2.085301
vt -0.4250779 -2.085301
vt 1.074922 1.2147
vt -0.4250789 1.2147
vt -4.787257 0.4250789
vt -3.287257 0.4250789
vt -4.787257 -1.074922
vt -3.287257 -1.074922
vt 4.787257 -1.074922
vt 3.287257 -1.074922
vt 4.787257 0.4250784
vt 3.287257 0.4250784

vn 0 0 1
vn -1 0 0
vn 0 0 -1
vn 1 0 0
vn 0 1 0
vn 0 -1 0
vn -0.7786862 0 0.6274135
vn -0.7121326 0 -0.7020451
vn 0.7498379 0 -0.6616217
vn 0.6823183 0 0.7310553

usemtl Collider
f 3/3/1 4/4/1 2/2/1 1/1/1
f 4/7/2 6/8/2 5/6/2 2/5/2
f 6/11/3 8/12/3 7/10/3 5/9/3
f 8/15/4 3/16/4 1/14/4 7/13/4
f 8/19/5 6/20/5 4/18/5 3/17/5
f 1/23/6 2/24/6 5/22/6 7/21/6
f 11/27/1 12/28/1 10/26/1 9/25/1
f 15/31/2 16/32/2 14/30/2 13/29/2
f 19/35/3 20/36/3 18/34/3 17/33/3
f 23/39/4 24/40/4 22/38/4 21/37/4
f 20/43/5 19/44/5 12/42/5 11/41/5
f 9/47/6 10/48/6 17/46/6 18/45/6
f 13/49/6 14/50/6 17/46/6 10/48/6
f 15/53/7 13/54/7 10/52/7 12/51/7
f 14/57/8 16/58/8 19/56/8 17/55/8
f 16/59/5 15/60/5 12/42/5 19/44/5
f 21/61/6 22/62/6 9/47/6 18/45/6
f 23/65/9 21/66/9 18/64/9 20/63/9
f 22/69/10 24/70/10 11/68/10 9/67/10
f 24/71/5 23/72/5 20/43/5 11/41/5
f 27/75/1 28/76/1 26/74/1 25/73/1
f 28/79/2 30/80/2 29/78/2 26/77/2
f 30/83/3 32/84/3 31/82/3 29/81/3
f 32/87/4 27/88/4 25/86/4 31/85/4
f 32/91/5 30/92/5 28/90/5 27/89/5
f 25/95/6 26/96/6 29/94/6 31/93/6
f 35/3/1 36/4/1 34/2/1 33/1/1
f 36/7/2 38/8/2 37/6/2 34/5/2
f 38/11/3 40/12/3 39/10/3 37/9/3
f 40/15/4 35/16/4 33/14/4 39/13/4
f 40/19/5 38/20/5 36/18/5 35/17/5
f 33/23/6 34/24/6 37/22/6 39/21/6
f 43/3/1 44/4/1 42/2/1 41/1/1
f 44/7/2 46/8/2 45/6/2 42/5/2
f 46/11/3 48/12/3 47/10/3 45/9/3
f 48/15/4 43/16/4 41/14/4 47/13/4
f 48/19/5 46/20/5 44/18/5 43/17/5
f 41/23/6 42/24/6 45/22/6 47/21/6
f 51/3/1 52/4/1 50/2/1 49/1/1
f 52/7/2 54/8/2 53/6/2 50/5/2
f 54/11/3 56/12/3 55/10/3 53/9/3
f 56/15/4 51/16/4 49/14/4 55/13/4
f 56/19/5 54/20/5 52/18/5 51/17/5
f 49/23/6 50/24/6 53/22/6 55/21/6

